FFmpeg version SVN-r25716, Copyright (c) 2000-2010 the FFmpeg developers  built on Nov 10 2010 12:23:18 with gcc 4.1.2 20080704 (Red Hat 4.1.2-48)  configuration: --enable-libmp3lame --enable-shared --disable-mmx --arch=x86_64  libavutil     50.33. 0 / 50.33. 0  libavcore      0.12. 1 /  0.12. 1  libavcodec    52.94. 4 / 52.94. 4  libavformat   52.84. 0 / 52.84. 0  libavdevice   52. 2. 2 / 52. 2. 2  libavfilter    1.59. 0 /  1.59. 0  libswscale     0.12. 0 /  0.12. 0Input #0, avi, from '/RAID10/data/converted_video_files/47523.avi':  Duration: 00:00:04.70, start: 0.000000, bitrate: 7988 kb/s    Stream #0.0: Video: msvideo1, rgb555le, 512x512, 30 tbr, 30 tbn, 30 tbc[buffer @ 0x1f0bb5a0] w:512 h:512 pixfmt:rgb555le[ffsink @ 0x1f0bbc90] auto-inserting filter 'auto-inserted scaler 0' between the filter 'src' and the filter 'out'[scale @ 0x1f0bbf80] w:512 h:512 fmt:rgb555le -> w:512 h:512 fmt:yuv420p flags:0x4Output #0, flv, to '/RAID10/data/converted_video_files/47523.flv':  Metadata:    encoder         : Lavf52.84.0    Stream #0.0: Video: flv, yuv420p, 512x512, q=2-31, 600 kb/s, 1k tbn, 24 tbcStream mapping:  Stream #0.0 -> #0.0Press [q] to stop encodingframe=   32 fps=  0 q=7.7 size=     224kB time=1.33 bitrate=1374.0kbits/s dup=0 drop=8    frame=   64 fps= 60 q=8.4 size=     338kB time=2.67 bitrate=1037.7kbits/s dup=0 drop=15    frame=   98 fps= 62 q=8.3 size=     449kB time=4.08 bitrate= 900.9kbits/s dup=0 drop=24    frame=  113 fps= 59 q=8.6 Lsize=     493kB time=4.71 bitrate= 857.9kbits/s dup=0 drop=28    video:491kB audio:0kB global headers:0kB muxing overhead 0.401321%